<?xml version="1.0" encoding="UTF-8"?>
<svg id="Capa_1" xmlns="http://www.w3.org/2000/svg" version="1.1" viewBox="0 0 866.4 369.2">
  <defs>
    <style>
      .st1 { fill: #ffffff; }
    </style>
  </defs>
  <g>
    <path class="st1" d="M190,83.5H36.6c-.2,0-.3.1-.3.3v152.6h0c1.1,22.6,27.1,35.2,50.3,37.2h0s0,0,0,0c.5,0,1,0,1.5.1.6,0,1.2,0,1.8.1,1.7.1,3.5.3,5.2.7.7.2,1.4.3,2.1.5,0,0,0,0,0,0,10.2,3.6,14.6,14,15.7,17.2.1.3.5.3.6,0,1.1-3.1,5.4-13.4,15.5-17.1.2,0,.3-.1.5-.2,2.4-.7,4.8-1,7.2-1.1.6,0,1.2,0,1.7-.1,24.1-1.6,51.7-14.7,51.8-38.8V83.9c0-.2-.1-.3-.3-.3ZM167,198.1c-4.2,1.2-14,5.3-27.3,20-9.5,11.3-18.8,14.4-21.8,16.1-.1,0-.2.2-.2.3v34.6c0,.4-.5.5-.7.2l-8.6-12.4c0,0,0-.1,0-.2v-22.2c0-.1,0-.3-.2-.3-3-1.6-12.6-4.3-21.7-16.1,0,0,0,0,0,0-13.3-14.7-23.1-18.8-27.3-20-.4-.1-.3-.7,0-.7,21-1.8,37.3,14.1,48.5,28.9.2.3.6.1.6-.2v-7.9c0,0,0-22.7,0-22.7,0-.2,0-.3.3-.3,5.9-1.6,32.3-9.3,32.5-40.2,0-8.4-4.7-33.6-27.8-33.4-13.6,0-28,8.8-28.1,33.4-.2,16.7,9.2,31.5,26.7,35.4.4,0,.4.6,0,.7-10.9,3.2-17.5.5-21-1.2-5.8-3-10.4-7.3-13.7-13.1-3.3-5.8-5.3-12.4-5.3-21s1-12.4,3-17.3c2-4.9,4.9-9.1,8.6-12.6,3.7-3.4,7.8-5.9,12.2-7.4,2.6-.9,5.5-1.8,8.3-2.3.2,0,.4-.3.3-.5-2.3-4.3-9-8.8-13.4-11.8-.3-.2-.2-.6.2-.7,9.7-.7,14.7,2.7,16.2,4,.2.2.6,0,.6-.2.6-6.6,5-17.2,5.4-18h0c0,0,0,0,0,0,.3.8,4.4,11.4,5.1,18,0,.3.4.4.6.2,1.5-1.3,6.5-4.7,16.2-4,.3,0,.5.5.2.7-4.3,2.9-10.7,7.5-13.1,11.7-.1.2,0,.5.3.5,3.3.5,5.6,1.4,8.4,2.6,3.9,1.6,7.5,3.5,10.5,6.2,3.1,2.7,5.4,5.4,7,8.2,1.6,2.8,2.8,5.9,3.6,9.2.8,3.3,1.7,9.4,1.7,12.7,0,6.8-.6,11-2.9,16.9-1.7,4.4-4.3,8.2-7.7,11.6-3.3,3.4-7.2,5.9-11.4,7.8-5.7,2.6-6.8,2.9-13.9,4-.2,0-.3.2-.3.4v22.9s0,0,0,0v7.6c0,.3.4.5.6.2,11.2-14.8,27.5-30.7,48.5-28.9.4,0,.5.6,0,.7ZM113,142.7c2.6,0,4.7,2.1,4.7,4.7s-2.1,4.7-4.7,4.7-4.7-2.1-4.7-4.7,2.1-4.7,4.7-4.7ZM108.3,132.7c0-2.6,2.1-4.7,4.7-4.7s4.7,2.1,4.7,4.7-2.1,4.7-4.7,4.7-4.7-2.1-4.7-4.7ZM113,157.6c2.6,0,4.7,2.1,4.7,4.7s-2.1,4.7-4.7,4.7-4.7-2.1-4.7-4.7,2.1-4.7,4.7-4.7ZM113,172.4c2.6,0,4.7,2.1,4.7,4.7s-2.1,4.7-4.7,4.7-4.7-2.1-4.7-4.7,2.1-4.7,4.7-4.7ZM127.3,145.8c-2.6,0-4.7-2.1-4.7-4.7s2.1-4.7,4.7-4.7,4.7,2.1,4.7,4.7-2.1,4.7-4.7,4.7ZM132,154.8c0,2.6-2.1,4.7-4.7,4.7s-4.7-2.1-4.7-4.7,2.1-4.7,4.7-4.7,4.7,2.1,4.7,4.7ZM127.3,163.8c2.6,0,4.7,2.1,4.7,4.7s-2.1,4.7-4.7,4.7-4.7-2.1-4.7-4.7,2.1-4.7,4.7-4.7ZM98.7,159.5c-2.6,0-4.7-2.1-4.7-4.7s2.1-4.7,4.7-4.7,4.7,2.1,4.7,4.7-2.1,4.7-4.7,4.7ZM103.5,168.5c0,2.6-2.1,4.7-4.7,4.7s-4.7-2.1-4.7-4.7,2.1-4.7,4.7-4.7,4.7,2.1,4.7,4.7ZM98.7,145.8c-2.6,0-4.7-2.1-4.7-4.7s2.1-4.7,4.7-4.7,4.7,2.1,4.7,4.7-2.1,4.7-4.7,4.7Z"/>
    <g>
      <path class="st1" d="M269.2,142.4c-1.9,3.5-4.7,6.1-8.5,7.7-3.7,1.6-8.3,2.4-13.6,2.4s-10.7-.9-14.3-2.8c-3.7-1.9-6.4-4.7-8.1-8.5-1.7-3.8-2.6-8.5-2.6-14.1v-40.8c0-1,.4-1.4,1.2-1.4h8.6c.8,0,1.2.5,1.2,1.4v42.8c0,5.3,1.3,9.2,3.8,11.7,2.5,2.5,6.2,3.8,11.1,3.8s5.9-.5,8.2-1.6c2.3-1.1,4-2.8,5.2-5.1,1.2-2.3,1.8-5.3,1.8-9v-42.5c0-.9.4-1.4,1.1-1.4h6.8c.7,0,1.1.4,1.1,1.3v42.5c0,5.6-1,10.2-2.9,13.8Z"/>
      <path class="st1" d="M284.7,150.2v-44.9c0-.9.4-1.4,1.2-1.4h7.1c.7,0,1.1.4,1.1,1.2v5c0,.3,0,.5.2.6.1,0,.4,0,.7-.3,1.9-1.5,3.6-2.8,5.3-3.9,1.7-1.1,3.4-2,5.1-2.5,1.7-.6,3.6-.9,5.7-.9,4.6,0,8.1,1.3,10.6,3.8,2.5,2.5,3.8,5.9,3.8,10v33.2c0,1.1-.5,1.6-1.5,1.6h-6.7c-.5,0-.8-.1-1-.3-.2-.2-.3-.6-.3-1.1v-31.5c0-2.6-.7-4.7-2.1-6.2-1.4-1.5-3.5-2.3-6.4-2.3s-3.1.3-4.5.8c-1.4.5-2.8,1.3-4.1,2.3-1.4,1-2.9,2.2-4.6,3.7v33.1c0,1-.6,1.5-1.7,1.5h-6.4c-1,0-1.4-.5-1.4-1.4Z"/>
      <path class="st1" d="M346.6,94.4c0,1.3-.6,1.9-1.8,1.9h-6.7c-.7,0-1.1-.1-1.3-.5-.2-.3-.3-.7-.3-1.3v-8.2c0-1,.5-1.5,1.4-1.5h7.5c.8,0,1.3.5,1.3,1.4v8.1ZM346.3,150c0,.7-.1,1.1-.4,1.4s-.7.4-1.4.4h-6.1c-.7,0-1.1-.1-1.3-.3-.2-.2-.3-.6-.3-1.1v-44.9c0-.9.4-1.4,1.3-1.4h7.2c.7,0,1.1.4,1.1,1.3v44.8Z"/>
      <path class="st1" d="M399.5,104.4c.2.3.2.7,0,1.1l-18.2,44.7c-.4,1-1.1,1.5-2.3,1.5h-4.2c-1.2,0-2-.5-2.4-1.4l-18.1-44.7c-.1-.5,0-.9.1-1.2.2-.3.6-.5,1-.5h7.5c.4,0,.7.1,1,.3.3.2.5.5.5.9l13,32.6c.4,1.1.9,1.1,1.4,0l12.8-32.6c.2-.3.4-.6.6-.8.2-.2.6-.3,1-.3h5.3c.5,0,.8.1,1,.5Z"/>
      <path class="st1" d="M413.9,138.5c1.3,2.2,3,3.9,5.2,5.2,2.2,1.3,4.6,1.9,7.3,1.9s5.2-.6,7.4-1.7c2.2-1.1,4.1-2.9,5.9-5.3.2-.2.4-.4.5-.4s.5,0,.8.2l4.6,2.2c.7.3.7.8.2,1.4-1.7,2.5-3.5,4.5-5.5,6-2,1.6-4.2,2.7-6.7,3.4-2.5.7-5.2,1.1-8.2,1.1-4.6,0-8.6-1-12.1-3.1-3.5-2-6.2-4.9-8.2-8.6-2-3.7-3-7.9-3-12.6s1-9.7,3.1-13.5c2-3.8,4.8-6.7,8.3-8.7,3.5-2.1,7.4-3.1,11.8-3.1s8.3,1,11.7,2.9c3.3,2,5.9,4.8,7.8,8.4,1.9,3.7,2.8,8.1,2.8,13.3s0,1-.2,1.4c-.1.4-.5.6-1.2.6h-33.3c-.3,0-.5.1-.7.4-.2.3-.2.6-.2,1,0,2.7.6,5.1,1.9,7.3ZM436.6,124c.7,0,1.1,0,1.3-.3s.3-.5.3-1c0-2.3-.5-4.4-1.5-6.5-1-2-2.4-3.7-4.2-5-1.8-1.3-4.1-1.9-6.8-1.9s-5.2.7-7.3,2c-2,1.4-3.5,3.1-4.6,5.4-1.1,2.2-1.6,4.6-1.6,7.1h24.4Z"/>
      <path class="st1" d="M456.6,151.3c-.2-.2-.4-.6-.4-1.1v-44.9c0-.9.4-1.4,1.2-1.4h6.9c.7,0,1.1.4,1.1,1.2v5.7c0,.4.1.6.3.6.2,0,.4,0,.7-.4,1.5-1.8,3-3.3,4.5-4.5s3.1-2.1,4.6-2.7c1.6-.6,3.1-.9,4.7-.9s3.2.4,3.2,1.3v7c0,.7-.3,1-1,.9-.7-.2-1.5-.3-2.3-.4s-1.6,0-2.5,0c-1.3,0-2.6.3-4,.8-1.4.5-2.7,1.3-3.8,2.2-1.2.9-2.1,2-2.9,3.1-.8,1.1-1.2,2.3-1.2,3.5v28.7c0,1-.6,1.5-1.7,1.5h-6.4c-.5,0-.8-.1-1.1-.4Z"/>
      <path class="st1" d="M514.2,111c-2-1.1-4.5-1.6-7.3-1.6s-5.4.6-7.3,1.8c-2,1.2-2.9,2.9-2.9,5s.4,2,1.3,3.1c.8,1,2.6,1.9,5.4,2.7l11.1,3.2c4.4,1.1,7.5,2.9,9.5,5.1,1.9,2.3,2.9,4.9,2.9,7.8s-.9,5.6-2.6,7.7c-1.7,2.1-4.1,3.8-7.1,5-3,1.2-6.5,1.8-10.4,1.8s-9.2-.9-12.8-2.8c-3.6-1.9-6.2-4.2-7.7-7.1-.1-.4-.2-.7-.2-.9s.1-.5.4-.7l4.4-2.3c.4-.2.8-.3,1-.3s.5.2.6.4c1,1.4,2.1,2.6,3.3,3.7,1.3,1.1,2.8,1.9,4.6,2.6,1.8.6,4,.9,6.5.9s4-.3,5.7-.9c1.7-.6,3-1.4,4-2.4,1-1,1.4-2.2,1.4-3.6s-.6-2.7-1.8-3.7c-1.2-1-3.2-2-6.2-2.7l-9.2-2.3c-4.6-1.2-7.8-2.9-9.8-5-2-2.1-3-4.6-3-7.6s.8-5.5,2.3-7.7c1.6-2.2,3.8-3.9,6.6-5.2,2.9-1.3,6.2-1.9,10-1.9s7.9.8,11.1,2.4c3.2,1.6,5.6,3.6,7.2,6.1.2.2.3.5.4.8,0,.3,0,.5-.5.8l-4.7,2.4c-.2.1-.5.1-.8,0s-.5-.2-.8-.5c-1.1-1.7-2.7-3.1-4.8-4.1Z"/>
      <path class="st1" d="M545.6,94.4c0,1.3-.6,1.9-1.8,1.9h-6.7c-.7,0-1.1-.1-1.3-.5-.2-.3-.3-.7-.3-1.3v-8.2c0-1,.5-1.5,1.4-1.5h7.5c.8,0,1.3.5,1.3,1.4v8.1ZM545.3,150c0,.7-.1,1.1-.4,1.4s-.7.4-1.4.4h-6.1c-.7,0-1.1-.1-1.3-.3-.2-.2-.3-.6-.3-1.1v-44.9c0-.9.4-1.4,1.3-1.4h7.2c.7,0,1.1.4,1.1,1.3v44.8Z"/>
      <path class="st1" d="M589.8,151.3c-.3-.2-.4-.6-.4-1.1v-3.4c0-.4-.1-.7-.4-.7-.2,0-.5,0-.8.4-.8.7-1.8,1.6-3,2.5-1.2,1-2.7,1.8-4.5,2.5-1.8.7-3.9,1.1-6.4,1.1-3.7,0-7.1-.9-10-2.7-3-1.8-5.3-4.5-7-8.1-1.7-3.6-2.6-8-2.6-13.4s.9-9.5,2.7-13.3c1.8-3.8,4.3-6.7,7.4-8.9,3.1-2.1,6.6-3.2,10.5-3.2s5.2.5,7.2,1.4c2,.9,3.7,2,5.3,3.4.5.4.8.6,1.1.5.2,0,.4-.5.4-1.1v-21c0-.9.4-1.4,1.2-1.4h7.2c.8,0,1.2.5,1.2,1.4v64c0,.5-.1.9-.4,1.2-.2.2-.7.4-1.4.4h-6.2c-.4,0-.8-.1-1-.4ZM584,111.1c-1.7-1-3.7-1.4-5.9-1.4s-5,.7-7.1,2.1c-2.1,1.4-3.7,3.4-4.9,6.2-1.2,2.7-1.8,6.2-1.8,10.3s.6,7.6,1.8,10.3c1.2,2.6,2.8,4.6,4.8,5.8,2,1.2,4.2,1.8,6.6,1.8s4.1-.5,5.9-1.5c1.7-1,3.1-2.3,4.1-3.8,1-1.5,1.5-3,1.5-4.5v-21.1c-1.7-1.7-3.5-3.1-5.2-4.1Z"/>
      <path class="st1" d="M630.4,151c-2.5,1.1-5.4,1.6-8.6,1.6-4.6,0-8.3-1.2-10.9-3.6-2.6-2.4-4-5.6-4-9.5s.9-6.1,2.8-8.5c1.9-2.3,4.7-4.2,8.3-5.6,3.6-1.4,8.1-2.2,13.3-2.4l5.9-.5c.4,0,.7-.2,1-.4.3-.2.5-.5.5-1v-2.3c0-2.9-.9-5.3-2.7-7-1.8-1.7-4.3-2.6-7.4-2.6s-4.5.5-6.5,1.6c-2,1.1-3.8,2.8-5.3,5-.2.3-.4.5-.5.6-.2.1-.5.1-1,0l-6.1-1.8c-.2-.1-.4-.3-.5-.5s0-.6.2-1.2c1.7-3.2,4.3-5.8,7.7-7.5,3.4-1.8,7.6-2.7,12.5-2.7s7.9.6,10.6,1.8c2.8,1.2,4.8,3,6.2,5.3,1.4,2.3,2,5,2,8.2v31.8c0,.6-.1,1-.3,1.2-.2.2-.6.3-1,.3h-6.1c-.4,0-.8-.2-1-.5-.2-.3-.4-.8-.5-1.3v-3.4c-.3-1-.8-1-1.6-.2-2.1,2-4.4,3.6-6.9,4.7ZM637.5,127.9l-4.9.4c-2.4.1-4.6.4-6.6.9-2,.5-3.7,1.2-5.1,2-1.4.8-2.5,1.8-3.3,3s-1.2,2.5-1.2,4.1c0,2.3.8,4.2,2.5,5.5,1.7,1.4,3.9,2,6.7,2s3.5-.3,5.1-.9c1.6-.6,3-1.4,4.2-2.4,1.2-1,2.1-2.1,2.8-3.2.7-1.1,1-2.1,1-3.2v-7c0-1-.4-1.5-1.3-1.4Z"/>
      <path class="st1" d="M691.9,151.3c-.3-.2-.4-.6-.4-1.1v-3.4c0-.4-.1-.7-.4-.7-.2,0-.5,0-.8.4-.8.7-1.8,1.6-3,2.5-1.2,1-2.7,1.8-4.5,2.5-1.8.7-3.9,1.1-6.4,1.1-3.7,0-7.1-.9-10-2.7-3-1.8-5.3-4.5-7-8.1-1.7-3.6-2.6-8-2.6-13.4s.9-9.5,2.7-13.3c1.8-3.8,4.3-6.7,7.4-8.9,3.1-2.1,6.6-3.2,10.5-3.2s5.2.5,7.2,1.4c2,.9,3.7,2,5.3,3.4.5.4.8.6,1.1.5.2,0,.4-.5.4-1.1v-21c0-.9.4-1.4,1.2-1.4h7.2c.8,0,1.2.5,1.2,1.4v64c0,.5-.1.9-.4,1.2-.2.2-.7.4-1.4.4h-6.2c-.4,0-.8-.1-1-.4ZM686.1,111.1c-1.7-1-3.7-1.4-5.9-1.4s-5,.7-7.1,2.1c-2.1,1.4-3.7,3.4-4.9,6.2-1.2,2.7-1.8,6.2-1.8,10.3s.6,7.6,1.8,10.3c1.2,2.6,2.8,4.6,4.8,5.8,2,1.2,4.2,1.8,6.6,1.8s4.1-.5,5.9-1.5c1.7-1,3.1-2.3,4.1-3.8,1-1.5,1.5-3,1.5-4.5v-21.1c-1.7-1.7-3.5-3.1-5.2-4.1Z"/>
      <path class="st1" d="M763.4,151.3c-.3-.2-.4-.6-.4-1.1v-3.4c0-.4-.1-.7-.4-.7-.2,0-.5,0-.8.4-.8.7-1.8,1.6-3,2.5-1.2,1-2.7,1.8-4.5,2.5-1.8.7-3.9,1.1-6.4,1.1-3.7,0-7.1-.9-10-2.7-3-1.8-5.3-4.5-7-8.1-1.7-3.6-2.6-8-2.6-13.4s.9-9.5,2.7-13.3c1.8-3.8,4.3-6.7,7.4-8.9,3.1-2.1,6.6-3.2,10.5-3.2s5.2.5,7.2,1.4c2,.9,3.7,2,5.3,3.4.5.4.8.6,1.1.5.2,0,.4-.5.4-1.1v-21c0-.9.4-1.4,1.2-1.4h7.2c.8,0,1.2.5,1.2,1.4v64c0,.5-.1.9-.4,1.2-.2.2-.7.4-1.4.4h-6.2c-.4,0-.8-.1-1-.4ZM757.6,111.1c-1.7-1-3.7-1.4-5.9-1.4s-5,.7-7.1,2.1c-2.1,1.4-3.7,3.4-4.9,6.2-1.2,2.7-1.8,6.2-1.8,10.3s.6,7.6,1.8,10.3c1.2,2.6,2.8,4.6,4.8,5.8,2,1.2,4.2,1.8,6.6,1.8s4.1-.5,5.9-1.5c1.7-1,3.1-2.3,4.1-3.8,1-1.5,1.5-3,1.5-4.5v-21.1c-1.7-1.7-3.5-3.1-5.2-4.1Z"/>
      <path class="st1" d="M793.3,138.5c1.3,2.2,3,3.9,5.2,5.2,2.2,1.3,4.6,1.9,7.3,1.9s5.2-.6,7.4-1.7c2.2-1.1,4.1-2.9,5.9-5.3.2-.2.4-.4.5-.4s.5,0,.8.2l4.6,2.2c.7.3.7.8.2,1.4-1.7,2.5-3.5,4.5-5.5,6-2,1.6-4.2,2.7-6.7,3.4-2.5.7-5.2,1.1-8.2,1.1-4.6,0-8.6-1-12.1-3.1-3.5-2-6.2-4.9-8.2-8.6-2-3.7-3-7.9-3-12.6s1-9.7,3.1-13.5c2-3.8,4.8-6.7,8.3-8.7,3.5-2.1,7.4-3.1,11.8-3.1s8.3,1,11.7,2.9c3.3,2,5.9,4.8,7.8,8.4,1.9,3.7,2.8,8.1,2.8,13.3s0,1-.2,1.4c-.1.4-.5.6-1.2.6h-33.3c-.3,0-.5.1-.7.4-.2.3-.2.6-.2,1,0,2.7.6,5.1,1.9,7.3ZM816,124c.7,0,1.1,0,1.3-.3s.3-.5.3-1c0-2.3-.5-4.4-1.5-6.5-1-2-2.4-3.7-4.2-5-1.8-1.3-4.1-1.9-6.8-1.9s-5.2.7-7.3,2c-2,1.4-3.5,3.1-4.6,5.4-1.1,2.2-1.6,4.6-1.6,7.1h24.4Z"/>
    </g>
    <g>
      <path class="st1" d="M224,165.1h12.3c1.1,0,1.7.7,1.7,2v82.7c0,1,.4,1.4,1.3,1.4h44.1c1.2,0,1.8.5,1.8,1.6v7.4c0,.5-.2.9-.5,1.2-.3.3-.8.5-1.4.5h-58.9c-.9,0-1.5-.2-1.8-.5-.3-.3-.5-.9-.5-1.6v-92.7c0-1.3.6-2,1.8-2Z"/>
      <g>
        <path class="st1" d="M327,260.8c-3.7,1.6-7.8,2.3-12.4,2.3-6.7,0-12-1.7-15.8-5.2-3.8-3.5-5.7-8-5.7-13.7s1.4-8.9,4.1-12.3c2.7-3.4,6.7-6.1,12-8.1,5.3-2,11.7-3.2,19.2-3.5l8.5-.7c.5,0,1-.3,1.4-.5.4-.3.7-.7.7-1.4v-3.3c0-4.3-1.3-7.6-3.9-10.1-2.6-2.5-6.2-3.7-10.7-3.7s-6.5.8-9.4,2.3c-2.9,1.6-5.4,4-7.7,7.3-.3.4-.5.7-.8.9-.3.2-.7.2-1.4,0l-8.9-2.6c-.3-.2-.6-.4-.7-.7-.1-.3,0-.9.3-1.8,2.5-4.7,6.2-8.3,11.1-10.9,4.9-2.6,10.9-3.8,18.1-3.8s11.4.9,15.4,2.7c4,1.8,7,4.3,8.9,7.7,2,3.3,2.9,7.3,2.9,11.8v46c0,.9-.2,1.5-.5,1.8-.3.3-.8.5-1.5.5h-8.9c-.6,0-1.1-.2-1.4-.7-.3-.5-.6-1.1-.7-1.9v-5c-.4-1.4-1.1-1.5-2.3-.3-3,3-6.4,5.2-10,6.8ZM337.2,227.4l-7,.5c-3.5.2-6.6.6-9.5,1.4-2.9.7-5.3,1.7-7.4,2.9-2,1.2-3.7,2.7-4.8,4.4-1.2,1.7-1.8,3.7-1.8,5.9,0,3.4,1.2,6.1,3.6,8,2.4,2,5.6,2.9,9.7,2.9s5.1-.5,7.4-1.4c2.3-.9,4.3-2.1,6.1-3.5,1.7-1.5,3.1-3,4.1-4.6,1-1.6,1.5-3.1,1.5-4.6v-10.2c0-1.5-.6-2.1-1.8-2Z"/>
        <path class="st1" d="M507.8,260.8c-3.7,1.6-7.8,2.3-12.4,2.3-6.7,0-12-1.7-15.8-5.2-3.8-3.5-5.7-8-5.7-13.7s1.4-8.9,4.1-12.3c2.7-3.4,6.7-6.1,12-8.1,5.3-2,11.7-3.2,19.2-3.5l8.5-.7c.5,0,1-.3,1.4-.5.4-.3.7-.7.7-1.4v-3.3c0-4.3-1.3-7.6-3.9-10.1-2.6-2.5-6.2-3.7-10.7-3.7s-6.5.8-9.4,2.3c-2.9,1.6-5.4,4-7.7,7.3-.3.4-.5.7-.8.9-.3.2-.7.2-1.4,0l-8.9-2.6c-.3-.2-.6-.4-.7-.7-.1-.3,0-.9.3-1.8,2.5-4.7,6.2-8.3,11.1-10.9,4.9-2.6,10.9-3.8,18.1-3.8s11.4.9,15.4,2.7c4,1.8,7,4.3,8.9,7.7,2,3.3,2.9,7.3,2.9,11.8v46c0,.9-.2,1.5-.5,1.8-.3.3-.8.5-1.5.5h-8.9c-.6,0-1.1-.2-1.4-.7-.3-.5-.6-1.1-.7-1.9v-5c-.4-1.4-1.1-1.5-2.3-.3-3,3-6.4,5.2-10,6.8ZM517.9,227.4l-7,.5c-3.5.2-6.6.6-9.5,1.4-2.9.7-5.3,1.7-7.4,2.9-2,1.2-3.7,2.7-4.8,4.4-1.2,1.7-1.8,3.7-1.8,5.9,0,3.4,1.2,6.1,3.6,8,2.4,2,5.6,2.9,9.7,2.9s5.1-.5,7.4-1.4c2.3-.9,4.3-2.1,6.1-3.5,1.7-1.5,3.1-3,4.1-4.6,1-1.6,1.5-3.1,1.5-4.6v-10.2c0-1.5-.6-2.1-1.8-2Z"/>
        <path class="st1" d="M551.8,261.8c-.9,0-1.5-.2-1.8-.5-.3-.3-.5-1-.5-1.8v-92.5c0-1.3.6-2,1.8-2h10.4c1,0,1.6.7,1.6,2v31.6c0,.9.2,1.3.6,1.4.4,0,.9-.1,1.5-.7,1-1,2.3-2,4.1-3.3,1.8-1.2,4-2.3,6.6-3.3,2.6-1,5.7-1.4,9.2-1.4,6.3,0,11.4,1.5,15.5,4.6,4.1,3.1,7.1,7.3,9.2,12.6,2,5.3,3.1,11.4,3.1,18.3,0,11.1-2.6,19.9-7.8,26.5-5.2,6.5-12.5,9.8-22,9.8s-7-.6-9.8-1.7c-2.8-1.1-5.1-2.5-6.9-4.2-1.8-1.7-3.3-3.1-4.3-4.4-.3-.4-.7-.6-1-.6-.3,0-.5.4-.5,1l-1,6.4c-.3,1.5-1.1,2.2-2.6,2.2h-5.5ZM563.3,238.3c0,3,.8,5.6,2.4,8,1.6,2.3,3.7,4.2,6.3,5.5,2.6,1.4,5.3,2,8.3,2s6.8-.9,9.6-2.7c2.8-1.8,5-4.7,6.6-8.7,1.6-4,2.4-9.1,2.4-15.3s-1.5-15.1-4.6-19.6c-3-4.4-7.5-6.6-13.4-6.6s-6.9.8-9.9,2.5c-3,1.7-5.6,3.7-7.7,6.3v28.7Z"/>
        <path class="st1" d="M655.6,260.8c-3.7,1.6-7.8,2.3-12.4,2.3-6.7,0-12-1.7-15.8-5.2-3.8-3.5-5.7-8-5.7-13.7s1.4-8.9,4.1-12.3c2.7-3.4,6.7-6.1,12-8.1,5.3-2,11.7-3.2,19.2-3.5l8.5-.7c.5,0,1-.3,1.4-.5.4-.3.7-.7.7-1.4v-3.3c0-4.3-1.3-7.6-3.9-10.1-2.6-2.5-6.2-3.7-10.7-3.7s-6.5.8-9.4,2.3c-2.9,1.6-5.4,4-7.7,7.3-.3.4-.5.7-.8.9-.3.2-.7.2-1.4,0l-8.9-2.6c-.3-.2-.6-.4-.7-.7-.1-.3,0-.9.3-1.8,2.5-4.7,6.2-8.3,11.1-10.9,4.9-2.6,10.9-3.8,18.1-3.8s11.4.9,15.4,2.7c4,1.8,7,4.3,8.9,7.7,2,3.3,2.9,7.3,2.9,11.8v46c0,.9-.2,1.5-.5,1.8-.3.3-.8.5-1.5.5h-8.9c-.6,0-1.1-.2-1.4-.7-.3-.5-.6-1.1-.7-1.9v-5c-.4-1.4-1.1-1.5-2.3-.3-3,3-6.4,5.2-10,6.8ZM665.8,227.4l-7,.5c-3.5.2-6.6.6-9.5,1.4-2.9.7-5.3,1.7-7.4,2.9-2,1.2-3.7,2.7-4.8,4.4-1.2,1.7-1.8,3.7-1.8,5.9,0,3.4,1.2,6.1,3.6,8,2.4,2,5.6,2.9,9.7,2.9s5.1-.5,7.4-1.4c2.3-.9,4.3-2.1,6.1-3.5,1.7-1.5,3.1-3,4.1-4.6,1-1.6,1.5-3.1,1.5-4.6v-10.2c0-1.5-.6-2.1-1.8-2Z"/>
        <path class="st1" d="M697.4,259.7v-65.1c0-1.3.6-2,1.7-2h10.3c1,0,1.6.6,1.6,1.7v7.2c0,.4.1.7.3.8.2.1.5,0,1-.5,2.7-2.2,5.3-4.1,7.7-5.7,2.4-1.6,4.9-2.8,7.4-3.7,2.5-.8,5.3-1.2,8.2-1.2,6.6,0,11.7,1.8,15.4,5.5,3.7,3.7,5.5,8.5,5.5,14.5v48.1c0,1.6-.7,2.3-2.2,2.3h-9.6c-.7,0-1.2-.2-1.5-.5-.3-.3-.5-.8-.5-1.6v-45.6c0-3.8-1-6.8-3-9-2-2.2-5.1-3.3-9.3-3.3s-4.5.4-6.5,1.1c-2,.7-4,1.8-6,3.3-2,1.4-4.2,3.2-6.6,5.4v48c0,1.5-.8,2.2-2.5,2.2h-9.3c-1.4,0-2.1-.7-2.1-2.1Z"/>
        <path class="st1" d="M801.7,260.8c-3.7,1.6-7.8,2.3-12.4,2.3-6.7,0-12-1.7-15.8-5.2-3.8-3.5-5.7-8-5.7-13.7s1.4-8.9,4.1-12.3c2.7-3.4,6.7-6.1,12-8.1,5.3-2,11.7-3.2,19.2-3.5l8.5-.7c.5,0,1-.3,1.4-.5.4-.3.7-.7.7-1.4v-3.3c0-4.3-1.3-7.6-3.9-10.1-2.6-2.5-6.2-3.7-10.7-3.7s-6.5.8-9.4,2.3c-2.9,1.6-5.4,4-7.7,7.3-.3.4-.5.7-.8.9-.3.2-.7.2-1.4,0l-8.9-2.6c-.3-.2-.6-.4-.7-.7-.1-.3,0-.9.3-1.8,2.5-4.7,6.2-8.3,11.1-10.9,4.9-2.6,10.9-3.8,18.1-3.8s11.4.9,15.4,2.7c4,1.8,7,4.3,8.9,7.7,2,3.3,2.9,7.3,2.9,11.8v46c0,.9-.2,1.5-.5,1.8-.3.3-.8.5-1.5.5h-8.9c-.6,0-1.1-.2-1.4-.7-.3-.5-.6-1.1-.7-1.9v-5c-.4-1.4-1.1-1.5-2.3-.3-3,3-6.4,5.2-10,6.8ZM811.9,227.4l-7,.5c-3.5.2-6.6.6-9.5,1.4-2.9.7-5.3,1.7-7.4,2.9-2,1.2-3.7,2.7-4.8,4.4-1.2,1.7-1.8,3.7-1.8,5.9,0,3.4,1.2,6.1,3.6,8,2.4,2,5.6,2.9,9.7,2.9s5.1-.5,7.4-1.4c2.3-.9,4.3-2.1,6.1-3.5,1.7-1.5,3.1-3,4.1-4.6,1-1.6,1.5-3.1,1.5-4.6v-10.2c0-1.5-.6-2.1-1.8-2Z"/>
        <path class="st1" d="M459.5,219.6c-3.4-4.5-9.1-7.9-17-10.4l-19.6-6.1c-3.6-1.3-6.3-2.7-8.1-4.2-1.9-1.5-3.1-3.1-3.7-4.8-.3-.8-.5-1.5-.7-2.2h0s0,0,0,0c0,0,0-.1,0-.2,0,0,0-.2,0-.3,0-.5-.1-.9-.1-1.4-.2-3.8.4-11.6,10.4-15.9.3-.1.6-.3.9-.4,0,0,.1,0,.2,0,0,0,0,0,0,0,1.9-.7,4-1.1,6.5-1.1,15.4,0,22.8,12.1,22.8,12.1.4.7.9,1,1.4,1.1.3,0,.7,0,1.2-.3l7.4-5.7c.6-.5.8-1,.7-1.4-.1-.4-.4-.9-.7-1.3-2.3-2.7-5-5-8.2-7-3.2-2-6.8-3.5-10.6-4.6-3.9-1.1-8.1-1.6-12.7-1.6-6.9,0-12.9,1.2-18,3.5-5.1,2.3-9.1,5.5-12,9.7-2.9,4.2-4.3,9-4.3,14.6s.7,6.9,2.2,10.2c1.5,3.3,3.8,6.3,6.8,8.9,3.1,2.6,7.1,4.7,12.1,6.4l19.7,6.4c3.7,1.3,6.4,2.6,8.3,4,1.9,1.3,3.3,2.8,4,4.4.8,1.6,1.2,3.4,1.2,5.4s-.1,2.4-.4,3.5c0,0,0,0,0,0,0,0,0,0,0,0,0,0,0,0,0,0-1.6,7.5-7.4,12.8-21,12.8s-14-3.4-18.4-7.3c0,0-.2-.1-.2-.2-2.2-1.9-4.4-4.3-6.6-7-.4-.5-.9-.8-1.4-.9-.5,0-1.3.2-2.2.8l-6.4,4.4c-.7.5-1.1,1-1.2,1.6,0,.5,0,1.1.4,1.7,2.4,3.6,5.5,6.6,9.1,9.1,3.6,2.5,7.7,4.3,12.4,5.6,4.6,1.3,9.7,1.9,15.2,1.9s13.8-1.1,19.1-3.3c5.3-2.2,9.5-5.4,12.4-9.6,2.9-4.2,4.4-9.1,4.4-14.9s-1.7-11.2-5.2-15.7Z"/>
      </g>
    </g>
  </g>
</svg>
